<svg width="92" height="92" viewBox="0 0 92 92" fill="none" xmlns="http://www.w3.org/2000/svg">
<circle cx="46" cy="46" r="46" fill="#FB6107"/>
<path d="M40.9116 42.6517C40.9116 45.8688 39.7708 48.3991 37.4892 50.2426C35.2077 52.0861 32.2561 53.0078 28.6346 53.0078C24.6147 53.0078 21.2829 52.2307 18.6392 50.6763V44.8747C21.5002 47.0074 24.8139 48.0737 28.5803 48.0737C30.5721 48.0737 32.1475 47.6219 33.3064 46.7182C34.4652 45.7784 35.0447 44.4952 35.0447 42.8686C35.0447 41.8926 34.7006 41.007 34.0126 40.2118C33.3245 39.3804 32.582 38.7659 31.7853 38.3683C30.9886 37.9345 29.7935 37.3561 28.2 36.6332C27.2584 36.1994 26.5884 35.8922 26.1901 35.7115C25.8279 35.5307 25.2122 35.2054 24.3431 34.7355C23.4739 34.2656 22.822 33.868 22.3874 33.5426C21.9891 33.2173 21.4821 32.7655 20.8664 32.1871C20.2507 31.6088 19.7981 31.0304 19.5083 30.4521C19.2548 29.8737 19.0013 29.205 18.7478 28.4459C18.5305 27.6507 18.4219 26.8012 18.4219 25.8975C18.4219 22.7889 19.5445 20.3309 21.7899 18.5235C24.0715 16.7162 27.0049 15.8125 30.5902 15.8125C33.8858 15.8125 36.6925 16.3909 39.0103 17.5476V23.0781C36.5838 21.5599 33.8315 20.8008 30.7532 20.8008C28.7613 20.8008 27.186 21.2526 26.0271 22.1563C24.9044 23.0238 24.3431 24.1805 24.3431 25.6264C24.3431 27.0723 24.9044 28.229 26.0271 29.0965C27.1498 29.9641 28.87 30.9039 31.1878 31.916C32.7088 32.5667 33.8858 33.1269 34.7187 33.5968C35.5879 34.0668 36.5657 34.7355 37.6522 35.603C38.7749 36.4344 39.5897 37.4465 40.0967 38.6394C40.6399 39.7961 40.9116 41.1335 40.9116 42.6517Z" fill="white"/>
<path d="M73.5859 52.6283H52.9976V16.0836H58.5928V47.6942H73.5859V52.6283Z" fill="white"/>
<path d="M33.3947 66.2381C34.5473 67.334 35.1236 68.6894 35.1236 70.3044C35.1236 71.9194 34.5473 73.3036 33.3947 74.4572C32.2996 75.6107 30.9453 76.1875 29.3316 76.1875C27.6603 76.1875 26.2483 75.6107 25.0956 74.4572C24.0006 73.3036 23.4531 71.9194 23.4531 70.3044C23.4531 68.6894 24.0006 67.334 25.0956 66.2381C26.2483 65.0846 27.6603 64.5078 29.3316 64.5078C30.9453 64.5078 32.2996 65.0846 33.3947 66.2381Z" fill="white"/>
<path d="M50.1102 66.2381C51.2628 67.334 51.8391 68.6894 51.8391 70.3044C51.8391 71.9194 51.2628 73.3036 50.1102 74.4572C49.0152 75.6107 47.6608 76.1875 46.0471 76.1875C44.3758 76.1875 42.9638 75.6107 41.8112 74.4572C40.7162 73.3036 40.1687 71.9194 40.1687 70.3044C40.1687 68.6894 40.7162 67.334 41.8112 66.2381C42.9638 65.0846 44.3758 64.5078 46.0471 64.5078C47.6608 64.5078 49.0152 65.0846 50.1102 66.2381Z" fill="white"/>
<path d="M66.8257 66.2381C67.9784 67.334 68.5547 68.6894 68.5547 70.3044C68.5547 71.9194 67.9784 73.3036 66.8257 74.4572C65.7307 75.6107 64.3764 76.1875 62.7627 76.1875C61.0913 76.1875 59.6794 75.6107 58.5267 74.4572C57.4317 73.3036 56.8842 71.9194 56.8842 70.3044C56.8842 68.6894 57.4317 67.334 58.5267 66.2381C59.6794 65.0846 61.0913 64.5078 62.7627 64.5078C64.3764 64.5078 65.7307 65.0846 66.8257 66.2381Z" fill="white"/>
</svg>
