<svg width="80" height="16" viewBox="0 0 80 16" fill="none" xmlns="http://www.w3.org/2000/svg">
<path d="M46.0781 1.42676H80.0048V14.2014H46.0781V1.42676Z" fill="#FB6107"/>
<path d="M6.83403 10.5343C6.83403 11.3296 6.55256 11.9551 5.98964 12.4108C5.42671 12.8665 4.69848 13.0943 3.80495 13.0943C2.81313 13.0943 1.99108 12.9022 1.3388 12.518V11.0839C2.04469 11.611 2.86227 11.8746 3.79155 11.8746C4.28299 11.8746 4.67168 11.7629 4.95761 11.5396C5.24354 11.3072 5.3865 10.99 5.3865 10.5879C5.3865 10.3467 5.30162 10.1278 5.13185 9.9312C4.96208 9.72569 4.7789 9.57379 4.58232 9.4755C4.38575 9.36828 4.09088 9.22531 3.69773 9.0466C3.46541 8.93938 3.3001 8.86343 3.20181 8.81875C3.11246 8.77408 2.96056 8.69366 2.74611 8.5775C2.53167 8.46134 2.37083 8.36305 2.26361 8.28263C2.16532 8.20221 2.04022 8.09052 1.88832 7.94756C1.73642 7.80459 1.62473 7.66163 1.55325 7.51866C1.4907 7.3757 1.42815 7.21039 1.3656 7.02275C1.31199 6.82617 1.28519 6.61619 1.28519 6.39281C1.28519 5.62437 1.56218 5.01677 2.11617 4.57C2.6791 4.12324 3.40286 3.89985 4.28746 3.89985C5.10057 3.89985 5.79306 4.04282 6.36492 4.32875V5.69585C5.76626 5.32057 5.08717 5.13293 4.32767 5.13293C3.83622 5.13293 3.44754 5.24462 3.16161 5.468C2.88461 5.68245 2.74611 5.96838 2.74611 6.3258C2.74611 6.68321 2.88461 6.96914 3.16161 7.18359C3.4386 7.39804 3.86303 7.63035 4.43489 7.88054C4.81017 8.04138 5.10057 8.17988 5.30609 8.29604C5.52053 8.4122 5.76179 8.5775 6.02985 8.79195C6.30684 8.99746 6.50789 9.24765 6.63298 9.54251C6.76701 9.82845 6.83403 10.1591 6.83403 10.5343ZM11.9873 12.8262C11.6924 12.9871 11.3305 13.0675 10.9016 13.0675C9.49878 13.0675 8.79736 12.3571 8.79736 10.9364V7.2238H7.73852V6.20517H8.79736V4.5432H10.1243V6.20517H11.9069V7.2238H10.1243V10.9632C10.1243 11.6155 10.437 11.9417 11.0625 11.9417C11.4288 11.9417 11.7371 11.8434 11.9873 11.6468V12.8262ZM15.6332 12.0221C16.0621 12.0221 16.3972 11.9059 16.6384 11.6736C16.8886 11.4323 17.0137 11.1196 17.0137 10.7354V9.97141H15.9951C15.4947 9.97141 15.1149 10.0697 14.8558 10.2663C14.6056 10.4629 14.4805 10.713 14.4805 11.0168C14.4805 11.3296 14.5788 11.5753 14.7754 11.754C14.972 11.9327 15.2579 12.0221 15.6332 12.0221ZM17.0539 12.1963C16.7054 12.7682 16.0934 13.0541 15.2177 13.0541C14.5744 13.0541 14.0561 12.8709 13.663 12.5046C13.2787 12.1293 13.0866 11.6557 13.0866 11.0839C13.0866 10.4316 13.3324 9.92673 13.8238 9.56932C14.3152 9.20297 15.0033 9.0198 15.8879 9.0198H17.0137V8.63111C17.0137 8.16647 16.902 7.818 16.6786 7.58568C16.4552 7.34442 16.0844 7.2238 15.5662 7.2238C14.8424 7.2238 14.1857 7.42484 13.5959 7.82693V6.55365C14.1231 6.24984 14.8201 6.09794 15.6868 6.09794C17.4649 6.09794 18.354 6.9602 18.354 8.68472V13.0005H17.0539V12.1963ZM21.437 13.0005H20.1235V6.20517H21.437V7.39804C21.7676 6.55811 22.3618 6.13815 23.2196 6.13815C23.3447 6.13815 23.4832 6.15156 23.6351 6.17836V7.46505C23.4475 7.38463 23.2375 7.34442 23.0052 7.34442C22.5495 7.34442 22.1742 7.54547 21.8793 7.94756C21.5844 8.34965 21.437 8.82769 21.437 9.38168V13.0005ZM28.2306 12.8262C27.9357 12.9871 27.5738 13.0675 27.1449 13.0675C25.7421 13.0675 25.0406 12.3571 25.0406 10.9364V7.2238H23.9818V6.20517H25.0406V4.5432H26.3675V6.20517H28.1501V7.2238H26.3675V10.9632C26.3675 11.6155 26.6803 11.9417 27.3057 11.9417C27.6721 11.9417 27.9804 11.8434 28.2306 11.6468V12.8262ZM35.2138 13.0005H33.9003V11.8344C33.5429 12.6654 32.837 13.0809 31.7827 13.0809C31.1125 13.0809 30.5809 12.8843 30.1877 12.4912C29.7945 12.0891 29.598 11.5396 29.598 10.8426V6.20517H30.9249V10.5209C30.9249 10.9856 31.0366 11.343 31.2599 11.5932C31.4923 11.8344 31.8095 11.9551 32.2116 11.9551C32.7209 11.9551 33.1274 11.7763 33.4312 11.4189C33.744 11.0615 33.9003 10.5567 33.9003 9.9044V6.20517H35.2138V13.0005ZM38.374 15.6007H37.0605V6.20517H38.374V7.2506C38.8386 6.4911 39.5356 6.11135 40.4649 6.11135C41.3584 6.11135 42.0643 6.43749 42.5825 7.08977C43.1008 7.73311 43.3599 8.55516 43.3599 9.55592C43.3599 10.5835 43.0919 11.4323 42.5557 12.1025C42.0286 12.7637 41.3227 13.0943 40.4381 13.0943C39.5356 13.0943 38.8476 12.719 38.374 11.9685V15.6007ZM38.374 9.58272C38.374 10.369 38.5572 10.9588 38.9235 11.3519C39.2988 11.7451 39.7232 11.9417 40.1968 11.9417C40.724 11.9417 41.1574 11.7361 41.4969 11.3251C41.8364 10.9052 42.0062 10.3199 42.0062 9.56932C42.0062 8.86343 41.8409 8.30497 41.5103 7.89395C41.1797 7.47399 40.7597 7.26401 40.2504 7.26401C39.7411 7.26401 39.2988 7.45165 38.9235 7.82693C38.5572 8.19328 38.374 8.77854 38.374 9.58272Z" fill="#333333"/>
<path d="M53.267 13.0005H48.1873V3.96687H49.5678V11.7808H53.267V13.0005ZM56.7715 12.0221C57.2004 12.0221 57.5355 11.9059 57.7767 11.6736C58.0269 11.4323 58.152 11.1196 58.152 10.7354V9.97141H57.1334C56.633 9.97141 56.2533 10.0697 55.9941 10.2663C55.7439 10.4629 55.6188 10.713 55.6188 11.0168C55.6188 11.3296 55.7171 11.5753 55.9137 11.754C56.1103 11.9327 56.3962 12.0221 56.7715 12.0221ZM58.1922 12.1963C57.8437 12.7682 57.2317 13.0541 56.356 13.0541C55.7127 13.0541 55.1944 12.8709 54.8013 12.5046C54.417 12.1293 54.2249 11.6557 54.2249 11.0839C54.2249 10.4316 54.4707 9.92673 54.9621 9.56932C55.4535 9.20297 56.1416 9.0198 57.0262 9.0198H58.152V8.63111C58.152 8.16647 58.0403 7.818 57.8169 7.58568C57.5936 7.34442 57.2227 7.2238 56.7045 7.2238C55.9807 7.2238 55.324 7.42484 54.7342 7.82693V6.55365C55.2614 6.24984 55.9584 6.09794 56.8251 6.09794C58.6032 6.09794 59.4923 6.9602 59.4923 8.68472V13.0005H58.1922V12.1963ZM62.6155 13.0005H61.2886V3.52457H62.6155V7.2372C63.098 6.48663 63.7816 6.11135 64.6662 6.11135C65.524 6.11135 66.2254 6.43302 66.7704 7.07636C67.3155 7.71971 67.588 8.57303 67.588 9.63634C67.588 10.5924 67.3289 11.41 66.8107 12.0891C66.2924 12.7592 65.582 13.0943 64.6796 13.0943C63.7771 13.0943 63.0891 12.719 62.6155 11.9685V13.0005ZM62.6155 9.55592C62.6155 10.3601 62.7942 10.9588 63.1516 11.3519C63.5091 11.7451 63.9469 11.9417 64.4651 11.9417C64.9655 11.9417 65.3855 11.7317 65.725 11.3117C66.0646 10.8828 66.2343 10.3333 66.2343 9.66314C66.2343 8.8947 66.0646 8.30497 65.725 7.89395C65.3855 7.47399 64.9521 7.26401 64.4249 7.26401C63.9603 7.26401 63.5403 7.45165 63.165 7.82693C62.7987 8.20222 62.6155 8.77854 62.6155 9.55592ZM73.3664 11.5664C73.5451 11.7361 73.6345 11.9461 73.6345 12.1963C73.6345 12.4465 73.5451 12.6609 73.3664 12.8397C73.1966 13.0184 72.9867 13.1077 72.7365 13.1077C72.4773 13.1077 72.2584 13.0184 72.0797 12.8397C71.9099 12.6609 71.8251 12.4465 71.8251 12.1963C71.8251 11.9461 71.9099 11.7361 72.0797 11.5664C72.2584 11.3877 72.4773 11.2983 72.7365 11.2983C72.9867 11.2983 73.1966 11.3877 73.3664 11.5664ZM75.958 11.5664C76.1367 11.7361 76.2261 11.9461 76.2261 12.1963C76.2261 12.4465 76.1367 12.6609 75.958 12.8397C75.7882 13.0184 75.5782 13.1077 75.3281 13.1077C75.0689 13.1077 74.85 13.0184 74.6713 12.8397C74.5015 12.6609 74.4166 12.4465 74.4166 12.1963C74.4166 11.9461 74.5015 11.7361 74.6713 11.5664C74.85 11.3877 75.0689 11.2983 75.3281 11.2983C75.5782 11.2983 75.7882 11.3877 75.958 11.5664ZM78.5496 11.5664C78.7283 11.7361 78.8177 11.9461 78.8177 12.1963C78.8177 12.4465 78.7283 12.6609 78.5496 12.8397C78.3798 13.0184 78.1698 13.1077 77.9197 13.1077C77.6605 13.1077 77.4416 13.0184 77.2629 12.8397C77.0931 12.6609 77.0082 12.4465 77.0082 12.1963C77.0082 11.9461 77.0931 11.7361 77.2629 11.5664C77.4416 11.3877 77.6605 11.2983 77.9197 11.2983C78.1698 11.2983 78.3798 11.3877 78.5496 11.5664Z" fill="white"/>
</svg>
